<svg width="32" height="32" viewBox="0 0 32 32" fill="none" xmlns="http://www.w3.org/2000/svg">
<g clip-path="url(#clip0)">
<path d="M13.6071 4.18127L15.1929 2.79377C15.8643 2.20627 16.95 2.20627 17.6143 2.79377L31.5 14.9375C32.1714 15.525 32.1714 16.475 31.5 17.0563L17.6143 29.2063C16.9429 29.7938 15.8571 29.7938 15.1929 29.2063L13.6071 27.8188C12.9286 27.225 12.9429 26.2563 13.6357 25.675L22.2429 18.5H1.71429C0.764286 18.5 0 17.8313 0 17V15C0 14.1688 0.764286 13.5 1.71429 13.5H22.2429L13.6357 6.32502C12.9357 5.74377 12.9214 4.77502 13.6071 4.18127Z" fill="#FEFBEC" fill-opacity="0.7"/>
</g>
<defs>
<clipPath id="clip0">
<rect width="32" height="32" fill="white"/>
</clipPath>
</defs>
</svg>
