<svg width="32" height="32" viewBox="0 0 32 32" fill="none" xmlns="http://www.w3.org/2000/svg">
<g clip-path="url(#clip0)">
<path d="M18.3929 27.8188L16.8072 29.2063C16.1357 29.7938 15.05 29.7938 14.3857 29.2063L0.500031 17.0625C-0.171397 16.475 -0.171397 15.525 0.500031 14.9438L14.3857 2.79377C15.0572 2.20627 16.1429 2.20627 16.8072 2.79377L18.3929 4.18127C19.0715 4.77502 19.0572 5.74377 18.3643 6.32502L9.75718 13.5H30.2857C31.2357 13.5 32 14.1688 32 15V17C32 17.8313 31.2357 18.5 30.2857 18.5H9.75718L18.3643 25.675C19.0643 26.2563 19.0786 27.225 18.3929 27.8188Z" fill="#FEFBEC" fill-opacity="0.7"/>
</g>
<defs>
<clipPath id="clip0">
<rect width="32" height="32" fill="white"/>
</clipPath>
</defs>
</svg>
